<?xml version="1.0" encoding="utf-8"?>
<svg viewBox="0 0 500 500" xmlns="http://www.w3.org/2000/svg">
  <path d="M 299.992 413.497 L 296.926 412.957 L 295.559 412.419 L 293.155 411.218 L 292.534 410.222 L 292.119 409.104 L 291.248 404.255 L 291.415 402.764 L 291.788 401.189 L 291.745 399.863 L 291.084 396.176 L 290.255 394.019 L 287.809 390.083 L 287.396 388.965 L 287.188 387.764 L 287.851 387.099 L 291.457 388.882 L 297.672 390.125 L 298.666 390.911 L 299.619 394.145 L 300.241 395.139 L 300.655 396.176 L 301.07 398.62 L 301.691 399.614 L 302.686 400.319 L 303.307 401.313 L 303.763 403.758 L 303.473 405.084 L 303.723 406.285 L 304.136 407.406 L 304.219 410.098 L 305.835 411.798 L 306.456 412.792 L 302.81 413.453 L 299.992 413.497 Z M 361.859 340.773 L 360.989 340.233 L 360.368 339.239 L 359.333 337.126 L 358.917 336.007 L 358.503 333.561 L 358.875 330.662 L 360.699 325.151 L 361.445 324.157 L 363.02 323.16 L 364.138 322.747 L 370.602 323.949 L 371.887 324.281 L 372.509 325.275 L 373.172 326.726 L 373.585 329.252 L 373.38 330.702 L 368.904 336.711 L 368.158 337.707 L 367.289 338.494 L 363.06 340.565 L 361.859 340.773 Z M 499.765 149.164 L 498.396 149.164 L 497.609 150.2 L 496.946 151.443 L 496.408 152.852 L 495.993 154.468 L 496.159 159.896 L 496.325 162.548 L 491.187 182.397 L 479.459 198.433 L 473.244 218.572 L 472.333 219.36 L 471.089 219.566 L 470.011 219.112 L 462.968 210.948 L 462.345 209.87 L 461.931 208.793 L 462.099 207.259 L 462.139 205.892 L 461.145 202.369 L 455.385 195.698 L 453.852 195.492 L 445.315 200.796 L 444.694 201.169 L 444.362 201.707 L 444.155 202.493 L 444.404 203.198 L 445.15 203.614 L 449.211 205.145 L 453.229 206.846 L 455.882 210.948 L 456.668 211.818 L 454.721 215.464 L 442.373 222.674 L 441.419 222.467 L 439.804 220.643 L 437.4 221.266 L 427.331 227.854 L 418.547 233.448 L 417.676 234.236 L 417.054 235.437 L 410.051 253.297 L 413.988 265.19 L 415.605 265.521 L 417.014 266.059 L 418.049 266.848 L 418.671 267.842 L 419.666 269.996 L 420.079 272.483 L 419.666 273.56 L 408.436 294.819 L 407.689 295.812 L 379.387 314.874 L 378.394 315.454 L 370.354 317.899 L 365.63 314.252 L 367.992 308.74 L 370.685 308.659 L 371.68 308.079 L 372.426 307.082 L 372.384 305.758 L 371.597 304.846 L 364.552 300.992 L 360.616 300.411 L 354.898 304.472 L 353.779 307.082 L 355.976 326.393 L 357.053 332.567 L 357.094 335.302 L 351.872 340.979 L 350.713 340.855 L 342.798 342.182 L 343.212 343.299 L 344.041 344.171 L 352.909 349.309 L 360.408 351.215 L 361.611 351.878 L 363.476 358.881 L 362.729 359.875 L 339.482 384.24 L 338.613 385.027 L 337.493 385.444 L 336.044 385.319 L 333.598 381.383 L 332.604 380.678 L 331.153 380.47 L 326.39 381.507 L 323.073 382.75 L 322.204 383.537 L 319.261 387.555 L 318.764 389.006 L 319.593 391.162 L 321.208 392.859 L 322.204 393.564 L 320.671 395.926 L 314.952 396.797 L 313.502 396.589 L 308.942 395.347 L 306.955 393.895 L 306.125 393.026 L 305.09 390.911 L 303.431 386.562 L 302.396 384.448 L 299.122 379.641 L 295.062 374.047 L 293.404 372.348 L 291.953 372.142 L 291.084 373.011 L 283.748 383.08 L 283.128 384.283 L 282.755 385.857 L 286.484 414.2 L 287.809 421.534 L 288.225 422.655 L 298.004 436.494 L 302.065 438.153 L 307.493 440.1 L 310.227 440.805 L 315.366 442.626 L 317.727 443.87 L 318.723 444.573 L 318.183 445.446 L 312.755 449.671 L 307.99 452.946 L 306.746 452.614 L 305.919 451.743 L 305.71 450.583 L 303.556 450.541 L 302.894 450.832 L 302.686 451.784 L 299.992 469.437 L 297.548 468.568 L 290.461 466.619 L 285.199 466.038 L 270.24 464.547 L 251.716 460.984 L 238.954 458.166 L 235.018 456.591 L 218.07 451.95 L 199.256 447.888 L 186.453 445.237 L 181.149 445.362 L 178.746 445.735 L 168.676 445.527 L 160.969 443.952 L 135.526 438.068 L 126.285 434.132 L 114.351 428.827 L 106.228 424.975 L 100.053 422.819 L 93.258 421.95 L 91.147 421.95 L 81.241 423.565 L 77.554 426.135 L 73.659 430.237 L 69.473 434.008 L 65.205 437.612 L 63.671 438.732 L 61.642 436.701 L 58.534 434.878 L 53.395 435.044 L 51.075 436.412 L 45.729 440.969 L 43.409 442.793 L 30.564 435.624 L 20.66 429.864 L 4.79 407.611 L 1.391 363.853 L 29.528 363.481 L 32.551 364.351 L 34.582 365.718 L 36.987 367.955 L 41.917 370.525 L 44.361 369.654 L 49.832 365.429 L 61.807 360.829 L 70.923 359.585 L 73.244 359.129 L 103.038 351.09 L 109.13 349.102 L 116.629 344.958 L 137.142 335.511 L 140.414 335.718 L 143.191 336.794 L 146.963 339.655 L 150.568 340.897 L 153.261 341.228 L 155.954 340.814 L 174.27 336.835 L 181.936 332.982 L 182.888 329.916 L 185.251 323.16 L 188.773 316.324 L 190.101 314.128 L 203.069 297.843 L 209.823 290.26 L 215.998 284.458 L 223.788 281.973 L 231.124 281.557 L 234.727 281.019 L 241.108 279.817 L 247.491 277.083 L 219.106 243.228 L 206.095 228.062 L 200.957 222.219 L 193.621 214.76 L 175.264 200.049 L 169.918 196.196 L 165.277 192.342 L 154.837 183.475 L 150.32 179.413 L 133.33 143.861 L 131.341 132.506 L 130.263 128.942 L 128.149 125.586 L 124.71 120.53 L 122.555 118.085 L 119.116 114.936 L 116.423 112.076 L 115.18 106.732 L 120.94 104.08 L 123.509 103.126 L 129.309 101.468 L 144.517 99.479 L 152.141 98.982 L 160.802 100.35 L 168.8 99.066 L 187.075 90.073 L 198.097 87.38 L 200.501 84.976 L 200.085 75.694 L 199.672 71.55 L 199.091 67.987 L 199.547 63.926 L 201.204 56.22 L 203.816 47.31 L 204.561 45.154 L 208.621 36.659 L 211.895 31.272 L 218.691 21.866 L 228.636 32.101 L 231.164 33.759 L 244.59 35.624 L 261.415 39.146 L 273.14 41.715 L 279.398 42.833 L 299.455 45.859 L 316.733 47.435 L 334.924 48.47 L 351.791 41.964 L 391.571 23.317 L 398.2 21.037 L 401.929 20.54 L 404.168 21.661 L 406.239 23.234 L 406.985 25.928 L 407.275 28.62 L 405.493 33.055 L 404.168 35.541 L 403.795 38.939 L 404.416 44.036 L 405.079 46.314 L 407.524 53.774 L 409.305 56.674 L 411.583 58.664 L 413.822 60.031 L 416.06 60.983 L 445.274 72.628 L 448.548 73.58 L 450.785 73.665 L 454.638 72.09 L 459.238 76.814 L 480.704 108.679 L 497.527 140.048 L 498.729 143.238 L 499.765 149.164 Z" style=""/>
</svg>